<?xml version="1.0" standalone="no"?>
<!DOCTYPE svg PUBLIC "-//W3C//DTD SVG 20010904//EN"
 "http://www.w3.org/TR/2001/REC-SVG-20010904/DTD/svg10.dtd">
<svg version="1.0" xmlns="http://www.w3.org/2000/svg"
 width="260.000000pt" height="260.000000pt" viewBox="0 0 260.000000 260.000000"
 preserveAspectRatio="xMidYMid meet">
<metadata>
Created by potrace 1.11, written by Peter Selinger 2001-2013
</metadata>
<g transform="translate(0.000000,260.000000) scale(0.100000,-0.100000)"
fill="#000000" stroke="none">
<path d="M3 2110 c5 -30 17 -37 32 -17 11 16 13 15 13 -8 0 -14 -5 -25 -10
-25 -5 0 -3 -7 6 -15 8 -8 25 -15 38 -15 18 0 20 -2 8 -10 -10 -6 -11 -10 -2
-10 6 0 12 -7 12 -15 0 -9 9 -15 25 -15 23 0 25 -2 14 -21 -8 -15 -8 -19 0
-15 6 4 11 3 11 -3 0 -5 8 -8 18 -6 35 6 57 -20 30 -36 -9 -6 -5 -9 15 -10 15
-1 35 -2 45 -3 26 -1 54 -27 48 -42 -7 -19 17 -13 26 6 5 12 7 12 7 -2 1 -12
9 -18 24 -18 63 0 74 -4 73 -24 -1 -18 4 -20 33 -18 22 3 31 0 27 -7 -4 -6 -3
-11 3 -11 5 0 12 4 16 10 3 5 12 7 21 3 11 -4 12 -8 3 -19 -16 -19 -8 -25 38
-29 21 -1 43 -3 49 -4 6 -1 11 -8 11 -16 0 -13 -3 -13 -18 1 -13 12 -19 12
-25 3 -4 -7 -3 -10 4 -5 6 3 15 -1 20 -9 4 -9 21 -17 37 -18 22 -2 31 -9 35
-27 4 -16 13 -25 25 -25 15 0 19 -6 18 -22 -2 -19 2 -23 26 -23 25 0 28 -3 23
-25 -4 -24 0 -27 36 -25 6 1 21 -46 24 -77 1 -7 5 -10 9 -7 4 2 10 -2 12 -8 4
-9 6 -10 6 -1 1 6 -4 15 -9 18 -15 9 -12 22 5 22 8 0 12 -4 9 -8 -2 -4 0 -10
4 -13 5 -3 8 -17 7 -31 -2 -14 1 -23 6 -19 5 3 6 10 3 16 -4 7 -2 8 5 4 7 -5
9 -16 5 -29 -6 -18 -4 -20 7 -10 12 10 17 8 28 -9 7 -11 8 -17 2 -13 -6 3 -11
0 -11 -8 0 -8 7 -18 16 -21 23 -9 26 -8 18 7 -5 8 -4 9 4 2 6 -6 12 -25 14
-42 2 -27 5 -30 20 -22 10 5 19 7 19 4 1 -3 3 -9 4 -15 1 -5 3 -17 4 -26 0 -8
6 -12 11 -9 6 3 10 -1 10 -10 0 -9 -4 -14 -8 -11 -5 3 -9 -1 -9 -8 0 -8 7 -13
16 -11 9 1 15 10 15 19 -1 8 3 13 8 10 5 -3 7 -12 4 -20 -3 -7 -1 -16 4 -19 5
-3 7 -14 5 -25 -3 -16 2 -20 22 -20 20 0 24 -4 20 -19 -3 -12 3 -27 16 -38 11
-10 17 -12 12 -4 -5 9 -3 12 6 9 8 -3 14 -13 14 -24 0 -10 3 -23 6 -29 4 -5 5
-17 4 -26 -2 -11 4 -16 19 -15 17 1 21 -5 21 -26 -1 -24 3 -28 26 -28 24 0 27
-3 23 -25 -4 -23 -1 -25 31 -25 33 0 34 1 25 28 l-10 27 19 -22 c22 -27 28
-28 28 -8 0 8 -4 12 -9 9 -4 -3 -8 0 -8 5 0 6 7 11 15 11 9 0 14 8 12 22 -1
17 4 24 21 26 12 2 20 8 17 13 -4 5 -2 9 4 9 6 0 8 7 5 15 -5 13 10 20 38 16
3 0 5 11 3 25 -1 13 2 27 7 30 5 3 7 12 4 20 -5 13 -2 16 27 18 6 1 14 12 17
26 3 16 12 25 24 25 11 0 21 6 24 14 3 10 -1 12 -14 8 -11 -4 -6 3 11 15 16
13 34 23 40 23 10 0 12 5 14 55 1 25 5 30 25 30 19 0 25 6 28 28 2 22 7 26 26
24 18 -3 21 1 18 20 -2 14 5 30 17 41 25 21 34 22 17 2 -9 -10 -9 -15 -1 -15
11 0 15 13 12 38 -2 11 10 16 36 13 6 -1 14 3 18 9 4 6 -1 7 -12 3 -16 -6 -16
-5 -4 10 7 9 9 17 3 17 -5 0 -13 -7 -16 -16 -4 -9 -9 -14 -13 -11 -9 10 17 37
37 37 11 0 16 8 16 23 -1 16 5 23 22 25 17 3 21 8 17 23 -4 12 -1 19 7 20 7 1
20 2 28 3 8 0 14 7 12 14 -1 6 2 12 8 12 5 0 10 5 10 11 0 5 -6 7 -12 3 -7 -4
-9 -3 -5 1 12 14 38 15 30 2 -4 -7 1 -6 10 2 10 8 29 11 44 8 26 -5 26 -4 8 9
-10 8 -13 14 -7 14 7 0 12 7 12 15 0 10 10 13 36 11 19 -1 37 1 40 6 3 5 10 6
15 3 5 -4 9 -2 9 4 0 5 -4 13 -10 16 -5 3 -10 0 -10 -7 0 -9 -3 -9 -10 2 -8
12 -10 12 -10 1 0 -8 -3 -11 -6 -8 -4 4 -1 13 6 22 9 11 16 12 25 5 8 -6 16
-7 19 -2 3 5 21 9 41 10 44 2 55 8 55 32 0 13 5 17 19 13 10 -3 22 0 25 6 5 8
13 8 27 1 13 -8 19 -7 19 0 0 6 5 8 11 4 8 -5 8 -1 0 14 -9 16 -7 21 9 25 11
3 20 0 20 -5 0 -7 5 -6 14 1 8 6 18 11 22 10 26 -5 35 2 29 22 -6 19 -4 21 19
17 14 -3 26 -1 26 3 0 29 15 48 38 48 50 -1 70 14 52 36 -11 13 -11 16 1 13 8
-2 13 3 11 10 -1 6 2 12 7 12 5 0 12 -6 14 -12 4 -10 6 -10 6 0 1 7 5 11 9 8
4 -2 8 15 8 40 1 40 -2 44 -23 44 -12 0 -24 -4 -24 -10 -1 -5 -3 -14 -4 -20
-1 -5 -3 -13 -4 -16 0 -4 -8 -1 -16 6 -15 13 -11 35 6 25 5 -4 9 -1 9 4 0 9
-19 9 -48 2 -1 -1 2 -9 7 -19 10 -20 2 -21 -121 -25 -20 0 -25 -5 -23 -19 2
-9 0 -20 -6 -23 -5 -4 -9 0 -9 7 0 8 -3 9 -8 3 -8 -12 -35 -17 -100 -18 -30 0
-39 -3 -28 -9 31 -17 7 -35 -45 -33 -28 1 -52 -2 -55 -6 -2 -4 -13 -6 -24 -4
-12 2 -18 1 -16 -4 3 -4 1 -13 -4 -21 -8 -13 -30 -17 -114 -21 -30 -1 -35 -4
-23 -11 10 -5 21 -7 25 -4 5 3 9 -1 9 -9 0 -18 -18 -19 -36 -2 -11 10 -13 10
-7 0 7 -12 -10 -18 -41 -14 -7 1 -13 -3 -13 -10 0 -9 -3 -9 -14 0 -10 8 -16 9
-21 1 -3 -6 -10 -8 -15 -5 -5 3 -11 1 -15 -5 -4 -6 -11 -7 -17 -4 -7 4 -8 2
-4 -5 4 -6 13 -8 19 -4 21 13 36 12 30 -3 -3 -7 -8 -13 -11 -12 -4 0 -26 -3
-49 -7 -38 -7 -41 -9 -32 -27 8 -15 8 -19 0 -14 -6 4 -11 2 -11 -4 0 -6 -4 -9
-9 -6 -12 8 -41 -4 -41 -16 0 -5 4 -7 9 -4 5 4 11 3 14 -1 2 -5 2 -1 0 7 -3
11 -1 12 8 3 14 -14 3 -34 -16 -26 -8 3 -15 0 -15 -7 0 -7 -7 -10 -16 -6 -10
4 -13 2 -8 -6 5 -8 2 -9 -10 -5 -11 4 -15 3 -11 -4 4 -6 13 -8 21 -5 7 3 16 0
20 -6 4 -7 3 -8 -4 -4 -7 4 -12 2 -12 -3 0 -6 -3 -10 -7 -10 -23 4 -30 -3 -28
-26 3 -20 -1 -24 -18 -22 -17 2 -23 -4 -25 -25 -3 -22 -8 -28 -28 -28 -20 0
-25 -4 -22 -22 3 -23 -22 -34 -72 -33 -22 0 -25 5 -26 38 -1 20 -4 40 -7 44
-4 3 -2 14 3 24 7 11 7 20 0 24 -18 11 1 32 26 27 20 -4 24 -1 21 17 -2 11 -7
24 -12 28 -4 5 -6 -2 -3 -14 4 -16 2 -20 -9 -16 -8 3 -12 11 -10 17 3 8 -20
11 -82 9 -47 -2 -95 -3 -106 -3 -16 -1 -17 -3 -5 -10 12 -8 13 -10 1 -10 -8 0
-11 -3 -8 -6 4 -4 13 -2 21 5 11 9 15 8 19 -4 4 -8 3 -14 -1 -14 -4 1 -17 1
-30 0 -18 -1 -22 -6 -18 -24 4 -24 -5 -49 -18 -48 -23 3 -30 0 -17 -8 8 -5 21
-7 30 -4 12 3 11 0 -3 -11 -16 -13 -22 -13 -29 -3 -5 7 -6 2 -3 -15 4 -16 2
-28 -3 -28 -6 0 -9 -12 -8 -27 3 -38 -36 -40 -43 -3 -4 17 -12 25 -25 25 -13
0 -22 8 -25 25 -3 14 -11 26 -18 26 -29 3 -32 4 -32 13 0 5 7 12 16 15 11 4
15 2 11 -8 -4 -10 -1 -13 9 -9 11 4 12 9 4 19 -7 7 -18 10 -26 7 -8 -3 -14 -1
-14 4 0 6 -10 15 -22 22 l-23 12 23 -5 c14 -3 22 1 22 9 0 8 -8 12 -20 10 -21
-4 -41 21 -33 42 3 7 -5 10 -21 9 -22 -3 -26 1 -26 23 0 20 -5 27 -21 28 -30
3 -34 10 -18 30 8 9 9 14 2 10 -6 -4 -14 -3 -17 2 -3 5 -15 7 -26 4 -18 -5
-25 6 -22 37 0 3 -8 6 -18 6 -17 0 -17 -2 -5 -16 13 -14 12 -16 -8 -17 -12 -1
-17 1 -10 5 19 12 -8 37 -42 38 -16 1 -39 2 -49 3 -11 1 -17 4 -13 7 12 13
-23 35 -58 36 -19 1 -35 4 -35 8 0 4 -11 5 -25 2 -20 -3 -25 0 -25 15 0 15 -8
20 -37 21 -61 4 -74 8 -84 23 -7 11 -9 11 -9 -4 0 -10 -5 -15 -10 -12 -6 4 -8
15 -5 26 4 11 2 19 -5 19 -6 0 -8 -4 -5 -10 3 -5 1 -10 -5 -10 -6 0 -8 -5 -4
-12 5 -9 2 -9 -9 1 -18 15 -23 26 -7 16 6 -3 10 -1 10 4 0 10 -23 13 -102 14
-16 0 -28 4 -28 9 0 4 4 8 9 8 5 0 11 6 14 13 5 13 -22 17 -140 20 -20 1 -29
5 -24 10 14 14 1 37 -21 37 -12 0 -17 -4 -12 -12 6 -10 4 -10 -7 0 -17 16 -29
15 -29 -2 0 -8 -4 -17 -9 -20 -5 -4 -7 3 -4 14 3 11 0 20 -6 20 -6 0 -10 -9
-8 -20z m2582 -50 c-3 -5 -13 -6 -21 -3 -12 4 -13 8 -3 14 15 9 32 2 24 -11z
m-2348 3 c-9 -2 -14 -9 -11 -15 4 -7 2 -8 -5 -4 -15 10 -4 26 17 25 15 -1 15
-2 -1 -6z m2157 -9 c3 -8 2 -12 -4 -9 -6 3 -10 0 -10 -7 0 -10 -3 -9 -9 2 -10
15 -6 30 9 30 4 0 11 -7 14 -16z m-134 -60 c0 -2 -9 0 -20 6 -11 6 -20 13 -20
16 0 2 9 0 20 -6 11 -6 20 -13 20 -16z m280 8 c0 -5 -7 -9 -15 -9 -8 0 -15 4
-15 9 0 4 7 8 15 8 8 0 15 -4 15 -8z m-430 -42 c-6 -11 -15 -18 -21 -15 -5 4
-9 1 -9 -6 0 -7 -3 -10 -6 -6 -3 3 -1 14 5 24 8 14 11 15 11 3 0 -12 3 -11 11
3 14 24 22 21 9 -3z m-1585 -19 c-6 -5 -25 10 -25 20 0 5 6 4 14 -3 8 -7 12
-15 11 -17z m-287 -36 c-3 -3 -9 2 -12 12 -6 14 -5 15 5 6 7 -7 10 -15 7 -18z
m422 0 c7 -9 8 -15 2 -15 -5 0 -12 7 -16 15 -3 8 -4 15 -2 15 2 0 9 -7 16 -15z
m1097 -107 c-3 -8 -6 -5 -6 6 -1 11 2 17 5 13 3 -3 4 -12 1 -19z m226 -85 c-3
-7 -6 -13 -8 -13 -2 0 -5 6 -8 13 -3 8 1 14 8 14 7 0 11 -6 8 -14z m-753 -149
c0 -8 -19 -13 -24 -6 -3 5 1 9 9 9 8 0 15 -2 15 -3z m216 -51 c-5 -15 -4 -15
9 1 15 19 15 19 15 -1 0 -21 -14 -25 -39 -9 -11 7 -11 10 0 17 20 12 22 11 15
-8z m144 -235 c0 6 4 12 8 12 5 0 9 -7 9 -15 0 -8 -3 -13 -5 -10 -3 3 -10 1
-16 -5 -8 -6 -12 -2 -13 13 -2 17 0 19 7 7 7 -10 10 -11 10 -2z m-136 -209
c-10 -16 -23 -9 -21 10 1 15 4 17 14 9 7 -5 10 -14 7 -19z m-240 -27 c2 -4 1
-14 -3 -21 -6 -9 -11 -10 -15 -2 -4 6 -1 11 6 11 9 0 9 3 -2 10 -9 6 -10 10
-3 10 6 0 14 -4 17 -8z"/>
<path d="M117 2119 c7 -7 15 -10 18 -7 3 3 -2 9 -12 12 -14 6 -15 5 -6 -5z"/>
<path d="M2465 1960 c-3 -5 -5 -10 -3 -11 33 -8 38 -7 27 7 -14 17 -16 17 -24
4z"/>
<path d="M2510 1876 c14 -14 42 -17 37 -3 -2 6 -13 11 -25 12 -16 1 -19 -2
-12 -9z"/>
<path d="M55 1861 c2 -9 4 -20 4 -26 1 -7 4 -7 9 0 9 12 30 18 62 18 14 0 19
2 12 4 -6 3 -9 9 -6 15 4 6 -2 6 -14 -1 -24 -13 -35 -14 -28 -3 2 4 -6 8 -18
8 -16 0 -23 -5 -21 -15z m29 1 c3 -5 -1 -9 -9 -9 -8 0 -12 4 -9 9 3 4 7 8 9 8
2 0 6 -4 9 -8z"/>
<path d="M2327 1859 c7 -7 15 -10 18 -7 3 3 -2 9 -12 12 -14 6 -15 5 -6 -5z"/>
<path d="M2490 1861 c0 -5 6 -12 13 -14 6 -3 1 -6 -13 -6 -15 -1 -32 -7 -39
-13 -8 -7 -11 -8 -8 -2 4 7 -2 10 -18 7 -13 -3 -26 -12 -30 -20 -4 -12 -2 -13
8 -5 10 9 14 9 14 -1 0 -7 -11 -14 -23 -15 -37 -3 -49 -6 -56 -17 -5 -6 -8 -4
-8 4 0 11 -5 10 -20 -4 -18 -16 -25 -14 -21 8 1 5 -3 6 -9 2 -8 -5 -7 -11 1
-21 9 -11 15 -12 28 -2 14 10 14 10 3 -2 -7 -8 -25 -16 -40 -17 -51 -3 -67
-10 -67 -28 0 -14 -9 -19 -40 -22 -22 -2 -53 -5 -70 -7 -16 -1 -31 -8 -31 -14
-1 -7 -2 -16 -3 -22 0 -5 -11 -10 -24 -10 -17 0 -23 -6 -25 -26 l-2 -25 100 3
c55 1 100 7 100 11 0 5 -7 6 -16 3 -10 -4 -13 -2 -8 7 5 7 0 6 -12 -3 -10 -8
-16 -10 -12 -6 4 5 4 14 -1 20 -7 8 0 12 21 13 21 0 26 -2 17 -8 -9 -6 -10 -9
-2 -9 6 0 15 5 18 10 5 8 12 7 23 -2 12 -10 14 -10 8 0 -7 11 16 15 90 15 16
0 20 5 16 24 -2 13 1 23 7 23 6 0 11 -5 11 -11 0 -6 6 -4 14 4 8 8 26 13 39
12 25 -3 31 15 12 32 -4 4 -5 2 0 -6 6 -10 4 -12 -5 -6 -9 6 -11 4 -5 -6 7
-12 5 -12 -6 -1 -12 11 -12 14 1 22 8 5 17 7 21 4 4 -2 11 1 15 7 4 8 9 7 15
-2 7 -11 9 -11 9 -1 0 7 5 10 10 7 9 -6 15 26 12 67 -2 19 24 32 34 16 4 -6 3
-8 -2 -5 -6 3 -11 -3 -11 -14 -1 -12 3 -19 10 -16 15 5 16 62 0 62 -6 0 -15 3
-19 8 -10 10 -24 9 -24 -2z m-154 -197 c2 -12 -1 -13 -12 -3 -7 6 -11 16 -8
21 7 11 17 3 20 -18z m-233 -7 c3 -7 -3 -13 -14 -13 -13 0 -15 3 -7 13 6 7 12
13 13 13 2 0 5 -6 8 -13z"/>
<path d="M101 1836 c-8 -10 -8 -21 -1 -40 5 -15 9 -32 7 -38 -1 -6 5 -13 13
-15 9 -3 11 -1 5 4 -15 12 -14 41 1 39 18 -3 31 -16 15 -16 -9 0 -9 -5 0 -21
7 -14 17 -19 30 -16 17 5 25 -8 20 -35 0 -5 12 -8 29 -8 17 0 30 -4 30 -9 0
-5 7 -12 16 -15 13 -5 14 -4 6 7 -9 10 -8 14 3 14 7 0 14 -3 13 -6 -3 -34 10
-42 82 -43 8 -1 21 -6 29 -12 9 -6 12 -7 9 -1 -4 6 2 11 13 11 10 0 20 -4 20
-8 1 -4 2 -14 3 -20 1 -9 25 -14 74 -16 61 -3 72 -1 72 13 0 9 5 13 10 10 6
-3 10 -2 10 3 0 12 -56 33 -64 25 -3 -4 -6 6 -6 21 0 16 -5 26 -12 25 -27 -3
-102 3 -91 8 9 3 10 10 4 21 -7 12 -25 18 -68 20 -32 2 -60 8 -61 13 -3 6 -11
4 -20 -3 -15 -12 -16 -11 -3 5 9 12 17 14 26 7 6 -5 15 -7 19 -3 3 4 -8 13
-26 20 -25 11 -33 11 -40 1 -6 -10 -8 -10 -8 0 0 6 -7 12 -16 12 -8 0 -12 5
-9 10 3 6 1 10 -4 10 -6 0 -11 -4 -11 -10 0 -5 -7 -10 -16 -10 -14 0 -14 3 -4
15 17 20 7 28 -30 27 -16 0 -32 4 -35 9 -9 13 -21 11 -34 -5z m329 -115 c0 -5
-7 -12 -16 -15 -14 -5 -15 -4 -4 9 14 17 20 19 20 6z m100 -63 c0 -4 -4 -8 -9
-8 -6 0 -12 4 -15 8 -3 5 1 9 9 9 8 0 15 -4 15 -9z m-52 -42 c-7 -8 -15 -12
-17 -11 -5 6 10 25 20 25 5 0 4 -6 -3 -14z"/>
<path d="M394 1800 c0 -15 4 -16 19 -8 19 10 16 20 -6 24 -7 1 -13 -7 -13 -16z"/>
<path d="M2170 1730 c0 -5 -1 -13 -2 -17 -2 -3 5 -7 15 -9 14 -2 15 1 8 10 -6
7 -8 16 -4 19 3 4 1 7 -5 7 -7 0 -12 -4 -12 -10z"/>
<path d="M1935 1650 c-3 -6 1 -7 9 -4 18 7 21 14 7 14 -6 0 -13 -4 -16 -10z"/>
<path d="M415 1610 c-4 -6 -12 -7 -18 -4 -7 4 -8 3 -4 -1 10 -12 39 -16 32 -5
-3 5 1 11 7 13 9 4 10 6 1 6 -6 1 -15 -4 -18 -9z"/>
<path d="M1876 1607 c3 -10 9 -15 12 -12 3 3 0 11 -7 18 -10 9 -11 8 -5 -6z"/>
<path d="M293 1571 c-3 -34 21 -44 48 -20 13 11 18 17 10 13 -11 -5 -13 -3 -8
9 5 13 0 17 -21 17 -20 0 -28 -5 -29 -19z m37 -12 c0 -5 -4 -9 -8 -9 -5 0 -9
7 -9 15 0 8 4 12 9 9 4 -3 8 -9 8 -15z"/>
<path d="M366 1578 c3 -5 10 -6 15 -3 13 9 11 12 -6 12 -8 0 -12 -4 -9 -9z"/>
<path d="M2254 1578 c-3 -5 -1 -8 5 -8 6 0 8 -7 5 -15 -5 -11 -2 -13 10 -9 9
3 14 10 11 14 -3 5 -1 11 4 14 5 4 13 1 17 -5 5 -8 3 -9 -6 -4 -9 5 -11 4 -6
-4 4 -6 0 -14 -8 -17 -12 -5 -13 -10 -5 -25 5 -10 6 -19 2 -19 -5 0 -13 10
-18 22 -9 20 -16 22 -65 19 -30 -2 -74 -5 -98 -6 -23 -1 -47 -6 -53 -12 -7 -7
-4 -10 13 -9 13 0 26 6 30 11 5 6 8 5 8 -3 0 -7 4 -11 9 -7 5 3 13 0 17 -6 4
-8 3 -9 -4 -5 -7 4 -12 3 -12 -2 0 -4 -18 -8 -40 -8 -22 0 -40 4 -40 9 0 5 -6
4 -14 -2 -8 -6 -18 -11 -22 -10 -5 1 -25 1 -45 0 -31 -1 -36 -4 -36 -25 0 -17
5 -23 21 -23 130 -2 147 -4 140 -15 -6 -10 -5 -10 7 -1 8 6 40 13 72 15 39 2
57 7 57 16 0 8 -5 10 -12 6 -7 -4 -6 0 2 9 8 9 35 18 60 21 25 3 47 5 50 6 3
0 -1 4 -9 9 -22 14 -6 41 22 35 21 -3 25 0 25 21 0 28 -8 31 -26 13 -9 -9 -12
-9 -12 0 0 13 -48 13 -56 0z m83 -11 c0 -8 -6 -14 -14 -14 -9 0 -10 4 -2 14 6
7 12 13 14 13 1 0 2 -6 2 -13z m-184 -52 c-3 -9 -8 -14 -10 -11 -3 3 -2 9 2
15 9 16 15 13 8 -4z m32 -35 c-3 -5 -12 -10 -18 -10 -7 0 -6 4 3 10 19 12 23
12 15 0z"/>
<path d="M1837 1563 c3 -7 8 -13 12 -13 4 0 8 6 8 13 0 8 -6 14 -13 14 -7 0
-10 -6 -7 -14z"/>
<path d="M339 1535 c-8 -33 3 -45 44 -45 15 0 27 -4 27 -10 0 -5 -5 -10 -12
-10 -9 0 -9 -3 -1 -11 14 -14 128 -24 246 -20 43 1 47 3 47 26 0 20 -5 25 -27
26 -61 2 -118 6 -118 8 0 2 -8 4 -17 6 -10 2 -18 -1 -18 -6 0 -6 -4 -7 -10 -4
-5 3 -10 14 -10 24 0 16 -10 19 -75 20 -41 1 -76 -1 -76 -4z m95 -77 c-9 -14
-23 2 -17 18 4 12 8 13 14 3 4 -7 5 -17 3 -21z"/>
<path d="M500 1525 c0 -9 8 -12 22 -10 12 3 29 -1 37 -7 15 -11 15 -10 0 5
-20 23 -59 30 -59 12z"/>
<path d="M575 1531 c-3 -5 -2 -12 3 -15 5 -3 9 1 9 9 0 17 -3 19 -12 6z"/>
<path d="M1985 1420 c-3 -6 1 -7 9 -4 18 7 21 14 7 14 -6 0 -13 -4 -16 -10z"/>
<path d="M2020 1425 c0 -7 30 -13 34 -7 3 4 -4 9 -15 9 -10 1 -19 0 -19 -2z"/>
<path d="M735 1383 c6 -4 17 -17 25 -28 15 -20 14 -20 -8 -1 -13 12 -22 14
-22 7 0 -7 -4 -9 -10 -6 -5 3 -10 2 -10 -3 0 -5 -17 -9 -37 -8 -29 1 -38 -3
-37 -15 1 -11 -6 -15 -23 -13 -30 3 -21 -8 10 -13 12 -2 55 -6 95 -9 l73 -6
-4 49 c-3 45 -6 48 -33 51 -16 1 -24 -1 -19 -5z"/>
<path d="M1813 1377 c-4 -7 0 -8 12 -3 15 5 16 4 6 -8 -7 -8 -14 -28 -16 -44
l-4 -29 82 2 c119 4 117 3 117 24 0 15 -6 19 -25 16 -14 -1 -25 1 -25 5 0 4
-21 8 -47 9 -27 2 -53 3 -60 4 -13 0 -5 27 9 27 5 0 7 -4 4 -9 -4 -5 3 -7 14
-4 11 3 20 8 20 12 0 11 -80 9 -87 -2z m182 -57 c3 -5 1 -10 -4 -10 -6 0 -11
5 -11 10 0 6 2 10 4 10 3 0 8 -4 11 -10z"/>
<path d="M598 1333 c7 -3 16 -2 19 1 4 3 -2 6 -13 5 -11 0 -14 -3 -6 -6z"/>
<path d="M804 1320 c0 -10 6 -16 13 -13 7 3 13 9 13 13 0 4 -6 10 -13 13 -7 3
-13 -3 -13 -13z"/>
<path d="M1501 1123 c7 -12 15 -20 18 -17 3 2 -3 12 -13 22 -17 16 -18 16 -5
-5z"/>
<path d="M1131 843 c5 -33 -2 -45 -26 -41 -22 5 -25 2 -25 -23 0 -24 -4 -29
-25 -29 -14 0 -24 -3 -24 -7 1 -5 1 -18 0 -31 -1 -18 -6 -22 -24 -18 -17 3
-23 -1 -23 -12 -1 -63 -4 -72 -29 -72 -21 0 -25 -5 -25 -28 0 -15 5 -33 12
-40 9 -9 9 -12 -1 -12 -7 0 -9 -4 -6 -10 4 -6 11 -5 19 2 11 11 11 15 -1 23
-12 9 -11 11 6 11 11 0 19 -3 19 -6 -2 -29 5 -40 25 -40 13 0 29 -6 36 -12 8
-8 11 -8 8 -2 -4 7 0 11 11 10 11 -1 18 8 21 24 1 14 8 28 15 32 7 5 8 8 0 8
-6 0 -10 12 -9 28 0 15 5 25 11 23 5 -2 8 -12 6 -22 -4 -21 14 -34 24 -18 4 8
3 9 -4 5 -7 -4 -12 -1 -12 8 0 9 4 16 9 16 11 0 9 19 -3 39 -6 10 -5 12 2 7 9
-5 12 10 13 51 1 32 1 66 0 76 -1 9 2 17 7 17 5 0 10 11 10 25 0 14 -4 25 -9
25 -5 0 -8 -3 -8 -7z m-109 -167 c7 4 8 2 4 -5 -9 -13 -26 -5 -25 12 0 9 2 8
6 -1 2 -6 10 -9 15 -6z"/>
<path d="M1159 840 c-1 -8 -1 -19 0 -24 1 -4 -3 -14 -8 -20 -8 -9 -6 -13 4
-13 8 0 13 2 10 5 -2 3 0 12 5 21 5 10 5 23 -1 32 -7 12 -9 12 -10 -1z"/>
<path d="M1433 833 c0 -11 7 -20 14 -20 10 0 10 4 1 16 -7 9 -13 18 -15 20 -1
2 -1 -5 0 -16z"/>
<path d="M1490 816 c14 -18 13 -19 -3 -13 -16 6 -17 0 -15 -72 3 -74 4 -79 24
-76 20 2 21 -3 23 -69 1 -38 4 -72 6 -74 9 -9 129 -2 139 8 7 7 6 10 -2 10 -7
0 -12 5 -12 11 0 5 5 7 10 4 6 -3 10 0 11 7 0 7 2 20 3 28 2 8 -1 26 -6 40 -9
24 -10 24 -24 6 -8 -11 -14 -15 -14 -8 0 6 10 18 22 26 24 17 17 22 -11 7 -17
-9 -18 -6 -23 45 -1 6 -7 11 -14 11 -7 0 -11 -4 -8 -9 3 -4 -2 -5 -10 -2 -9 4
-16 18 -16 34 0 25 -3 28 -25 24 -22 -4 -25 -1 -26 23 -1 16 0 33 1 38 1 6 -2
7 -6 3 -4 -4 -14 -2 -23 5 -14 11 -15 10 -1 -7z m4 -118 c-5 -8 -2 -9 10 -5
14 6 15 3 6 -14 -13 -23 -30 -17 -25 9 5 23 4 22 11 22 3 0 2 -5 -2 -12z m56
-158 c0 -5 -5 -10 -11 -10 -5 0 -7 5 -4 10 3 6 8 10 11 10 2 0 4 -4 4 -10z"/>
<path d="M1535 780 c-3 -5 -1 -10 4 -10 6 0 11 5 11 10 0 6 -2 10 -4 10 -3 0
-8 -4 -11 -10z"/>
<path d="M1150 759 c0 -5 5 -7 10 -4 6 3 10 8 10 11 0 2 -4 4 -10 4 -5 0 -10
-5 -10 -11z"/>
<path d="M1302 742 c-7 -9 -10 -11 -7 -4 4 7 0 12 -10 12 -12 0 -14 -4 -5 -19
5 -11 6 -22 2 -25 -4 -2 -8 -31 -7 -64 0 -38 -4 -59 -12 -59 -6 0 -10 5 -9 11
2 6 1 8 -1 3 -3 -4 -8 -5 -12 -3 -4 3 -9 -16 -10 -42 -1 -26 -3 -58 -4 -71 -2
-25 -2 -25 95 -25 53 -1 94 2 91 7 -2 4 -12 7 -21 7 -13 0 -17 10 -18 47 -2
92 -4 104 -14 98 -5 -3 -10 -1 -10 4 0 6 5 11 10 11 6 0 10 7 10 15 0 8 -5 15
-11 15 -5 0 -7 -5 -3 -11 5 -8 2 -9 -11 -2 -13 7 -19 25 -20 57 -3 56 -7 61
-23 38z m29 -125 c-10 -9 -11 -8 -5 6 3 10 9 15 12 12 3 -3 0 -11 -7 -18z
m-61 -52 c0 -2 -7 -5 -15 -9 -9 -3 -15 0 -15 9 0 9 6 12 15 9 8 -4 15 -7 15
-9z"/>
<path d="M950 630 c-13 -8 -12 -10 3 -10 9 0 17 5 17 10 0 12 -1 12 -20 0z"/>
<path d="M1690 605 c-1 -5 -3 -17 -5 -26 -2 -10 3 -16 11 -15 19 3 20 7 6 31
-6 11 -12 16 -12 10z"/>
<path d="M1529 483 c-13 -16 -12 -17 4 -4 16 13 21 21 13 21 -2 0 -10 -8 -17
-17z"/>
<path d="M1060 479 c0 -5 5 -7 10 -4 6 3 10 8 10 11 0 2 -4 4 -10 4 -5 0 -10
-5 -10 -11z"/>
<path d="M1340 446 c0 -2 8 -10 18 -17 15 -13 16 -12 3 4 -13 16 -21 21 -21
13z"/>
<path d="M1316 418 c3 -5 10 -6 15 -3 13 9 11 12 -6 12 -8 0 -12 -4 -9 -9z"/>
</g>
</svg>
